<svg xmlns="http://www.w3.org/2000/svg" id="Layer_1" height="512" viewBox="0 0 512 512" width="512"><path d="m500.862 182.149c0 34.106-10.364 66.811-29.971 94.577-15.377 21.777-35.493 39.249-58.849 51.298l1.935.335c4.354.753 7.272 4.893 6.52 9.246-.673 3.893-4.054 6.638-7.873 6.638-.453 0-.912-.038-1.373-.118l-29.202-5.051c-2.624-.454-4.851-2.184-5.938-4.615-1.088-2.431-.896-5.244.515-7.503l14.196-22.747c2.341-3.747 7.274-4.891 11.022-2.552 3.748 2.34 4.891 7.274 2.552 11.022l-1.154 1.85c49.393-24.915 81.621-76.262 81.621-132.38 0-4.418 3.582-8 8-8s7.999 3.582 7.999 8zm-320.296 8c4.418 0 8-3.582 8-8 0-56.323 32.176-107.52 81.642-132.415l-1.176 1.884c-2.339 3.748-1.196 8.683 2.552 11.022 1.317.822 2.781 1.214 4.228 1.214 2.669 0 5.277-1.335 6.795-3.766l14.196-22.747c1.409-2.259 1.603-5.072.515-7.503-1.088-2.432-3.313-4.161-5.938-4.615l-29.201-5.051c-4.346-.757-8.494 2.165-9.246 6.52-.753 4.354 2.166 8.493 6.52 9.246l1.942.336c-53.882 27.88-88.827 84.093-88.827 145.874-.002 4.419 3.58 8.001 7.998 8.001zm156.148-156.149c56.31 0 107.52 32.18 132.415 81.643l-1.885-1.176c-3.748-2.338-8.682-1.196-11.022 2.552-2.339 3.748-1.196 8.683 2.552 11.022l22.747 14.196c1.289.805 2.76 1.213 4.235 1.213 1.11 0 2.225-.231 3.268-.698 2.432-1.088 4.161-3.314 4.615-5.938l5.051-29.202c.753-4.354-2.166-8.493-6.52-9.246-4.344-.756-8.494 2.165-9.246 6.52l-.336 1.943c-27.882-53.879-84.107-88.829-145.874-88.829-4.418 0-8 3.582-8 8s3.582 8 8 8zm-119.508 213.279c2.339-3.748 1.196-8.684-2.552-11.022l-22.748-14.195c-2.259-1.409-5.071-1.604-7.504-.515-2.431 1.088-4.16 3.314-4.614 5.938l-5.05 29.201c-.753 4.354 2.166 8.493 6.52 9.246.461.08.92.118 1.373.118 3.819 0 7.2-2.745 7.873-6.638l.333-1.923c27.865 53.909 83.967 88.808 145.877 88.808 4.418 0 8-3.582 8-8s-3.582-8-8-8c-56.447 0-107.54-32.144-132.418-81.645l1.888 1.178c3.749 2.34 8.684 1.197 11.022-2.551zm247.65 152.718c4.973 17.434-5.162 37.688-21.262 42.493l-174.295 52.036c-6.34 1.892-12.718 2.832-19.041 2.833-11.465 0-22.755-3.091-33.354-9.211l-97.855-56.497-15.565 4.17 4.302 16.624c2.841 10.979-3.78 22.223-14.759 25.063l-26.639 6.893c-1.708.441-3.44.66-5.162.66-3.624 0-7.203-.969-10.418-2.862-4.742-2.792-8.109-7.252-9.482-12.557l-35.809-138.38c-2.841-10.979 3.78-22.221 14.759-25.062l26.64-6.894c10.98-2.84 22.221 3.78 25.062 14.759l2.227 8.605 70.427-18.985c18.43-4.968 39.889-8.348 59.312 4.252 4.793 3.109 10.362 6.991 16.259 11.102 16.958 11.819 38.063 26.53 60.582 37.138.326.153.642.329.943.525 14.938 9.688 19.946 28.865 11.402 43.661-1.582 2.74-3.418 5.142-5.469 7.19 4.272.055 8.562-.526 12.947-1.719l95.308-25.928c54.429-14.803 66.529 11.635 68.94 20.091zm-372.561 56.456-35.807-138.38c-.525-2.029-2.434-3.417-4.462-3.417-.365 0-.735.046-1.103.141l-26.64 6.894c-2.396.62-3.896 3.168-3.276 5.564l35.809 138.381c.302 1.167 1.052 2.154 2.111 2.777 1.06.625 2.285.802 3.453.499l26.639-6.893c2.396-.62 3.896-3.169 3.276-5.566zm107.491-72.888c-3.826-2.209-5.138-7.102-2.929-10.929 2.21-3.825 7.099-5.136 10.929-2.929 5.534 3.195 38.774 23.038 51.543 29.272 6.56 2.188 14.746 2.39 19.944-6.617 4.279-7.41 1.759-16.769-5.842-21.965-23.533-11.157-45.058-26.161-62.378-38.233-6.036-4.207-11.248-7.84-15.817-10.804-14.112-9.155-30.659-6.481-46.441-2.227l-70.582 19.027 21.262 82.17 18.633-4.992c2.048-.55 4.233-.263 6.07.8l100.727 58.154c12.716 7.342 26.113 8.993 39.816 4.901l174.295-52.036c7.736-2.309 13.012-13.802 10.453-22.773-3.724-13.054-22.172-16.435-49.354-9.039l-95.308 25.928c-14.722 4.003-29.061 2.74-43.831-3.862-2.685-1.2-5.287-2.415-7.821-3.642m-210.058-86.633c-4.69-.549-8.938 2.807-9.487 7.497s2.807 8.937 7.497 9.487c4.69.549 8.937-2.807 9.487-7.497.549-4.69-2.808-8.937-7.497-9.487zm249.972-255.355c2.341-2.339 5.878-2.998 8.904-1.654l6.405 2.846c3.19-1.668 6.515-3.046 9.945-4.124l2.516-6.536c1.188-3.088 4.156-5.126 7.466-5.126h16.817c3.31 0 6.277 2.038 7.466 5.126l2.516 6.536c3.431 1.078 6.755 2.456 9.945 4.124l6.404-2.846c3.026-1.341 6.563-.685 8.905 1.654l11.892 11.892c2.34 2.341 2.997 5.88 1.654 8.904l-2.844 6.401c1.668 3.191 3.047 6.519 4.125 9.95l6.533 2.515c3.088 1.188 5.126 4.156 5.126 7.466v16.817c0 3.31-2.038 6.277-5.126 7.466l-6.536 2.516c-1.077 3.43-2.456 6.754-4.123 9.944l2.845 6.406c1.343 3.024.686 6.563-1.654 8.903l-11.891 11.892c-2.34 2.341-5.879 3-8.904 1.655l-6.403-2.844c-3.192 1.669-6.519 3.047-9.949 4.125l-2.515 6.532c-1.188 3.089-4.156 5.127-7.466 5.127h-16.817c-3.31 0-6.277-2.038-7.466-5.126l-2.516-6.536c-3.43-1.078-6.754-2.456-9.944-4.123l-6.406 2.845c-3.026 1.345-6.563.686-8.904-1.654l-11.892-11.892c-2.34-2.341-2.997-5.88-1.654-8.904l2.844-6.402c-1.668-3.191-3.046-6.518-4.124-9.949l-6.533-2.515c-3.089-1.188-5.127-4.156-5.127-7.466v-16.817c0-3.31 2.038-6.277 5.126-7.466l6.535-2.516c1.078-3.43 2.456-6.755 4.124-9.946l-2.845-6.404c-1.343-3.024-.686-6.563 1.654-8.904zm3.306 19.322 2.251 5.069c1.07 2.411.884 5.195-.5 7.442-2.519 4.09-4.357 8.525-5.467 13.185-.61 2.565-2.446 4.666-4.908 5.613l-5.169 1.99v5.831l5.167 1.989c2.463.947 4.299 3.048 4.909 5.614 1.109 4.66 2.949 9.098 5.468 13.188 1.383 2.246 1.569 5.03.499 7.441l-2.25 5.066 4.124 4.123 5.069-2.251c2.409-1.071 5.193-.885 7.441.499 4.091 2.519 8.527 4.357 13.185 5.467 2.566.61 4.666 2.447 5.613 4.908l1.99 5.17h5.831l1.989-5.167c.947-2.463 3.049-4.3 5.615-4.91 4.657-1.107 9.095-2.946 13.188-5.467 2.249-1.384 5.032-1.57 7.441-.499l5.066 2.25 4.124-4.123-2.252-5.07c-1.07-2.411-.884-5.194.499-7.441 2.519-4.092 4.358-8.527 5.467-13.185.61-2.565 2.447-4.666 4.908-5.613l5.17-1.99v-5.831l-5.167-1.989c-2.462-.947-4.298-3.048-4.908-5.614-1.109-4.661-2.949-9.098-5.468-13.188-1.384-2.247-1.57-5.031-.5-7.442l2.25-5.066-4.123-4.123-5.068 2.252c-2.412 1.068-5.196.886-7.443-.5-4.089-2.519-8.525-4.357-13.185-5.467-2.566-.61-4.666-2.447-5.613-4.908l-1.99-5.17h-5.831l-1.99 5.17c-.947 2.461-3.047 4.298-5.613 4.908-4.659 1.109-9.095 2.948-13.184 5.467-2.248 1.384-5.033 1.57-7.442.5l-5.07-2.252zm3.01 36.216c0-20.583 16.746-37.329 37.329-37.329s37.328 16.746 37.328 37.329-16.745 37.328-37.328 37.328-37.329-16.745-37.329-37.328zm16 0c0 11.761 9.568 21.328 21.329 21.328s21.328-9.567 21.328-21.328-9.567-21.329-21.328-21.329-21.329 9.568-21.329 21.329zm-69.75 166.553c-4.418 0-8-3.582-8-8v-82.164c0-4.418 3.582-8 8-8h41.077c4.418 0 8 3.582 8 8v82.164c0 4.418-3.582 8-8 8zm8-16h25.077v-66.164h-25.077zm104.155 26h-41.077c-4.418 0-8-3.582-8-8v-82.163c0-4.418 3.582-8 8-8h41.077c4.418 0 8 3.582 8 8v82.163c0 4.418-3.582 8-8 8zm-8-82.163h-25.077v66.163h25.077zm78.002-26.001c4.418 0 8 3.582 8 8v82.164c0 4.418-3.582 8-8 8h-41.077c-4.418 0-8-3.582-8-8v-82.164c0-4.418 3.582-8 8-8zm-8 16h-25.077v66.164h25.077z"></path></svg>