<svg xmlns="http://www.w3.org/2000/svg" clip-rule="evenodd" fill-rule="evenodd" height="173.397mm" viewBox="0 0 173.397 173.397" width="173.397mm"><g id="Layer_x0020_1"><g id="_313397408"><path id="_313380056" d="m13.5016 159.895h146.394v-21.8947c-1.6795.2855-3.4168.9366-5.2296 1.6155-2.5932.9712-5.2746 1.9774-8.0733 1.9774s-5.4804-1.0061-8.0738-1.9774c-2.4205-.9088-4.7072-1.7651-6.8998-1.7651-2.1929 0-4.4791.8564-6.9001 1.7651-2.5933.9712-5.275 1.9774-8.0733 1.9774-2.7987 0-5.4805-1.0061-8.0738-1.9774-2.4206-.9088-4.7076-1.7651-6.9002-1.7651-2.1925 0-4.4791.8564-6.8997 1.7651-2.5937.9712-5.2751 1.9774-8.0738 1.9774-2.7983 0-5.48-1.0061-8.0734-1.9774-2.4205-.9088-4.7072-1.7651-6.9-1.7651-2.1926 0-4.4793.8564-6.9002 1.7651-2.5933.9712-5.2747 1.9774-8.0734 1.9774s-5.4801-1.0061-8.0733-1.9774c-2.421-.9088-4.7075-1.7651-6.9002-1.7651-2.1926 0-4.4793.8564-6.9001 1.7651-2.5934.9712-5.275 1.9774-8.0736 1.9774-2.7985 0-5.4802-1.0061-8.0733-1.9774-1.8128-.6791-3.5501-1.33-5.2293-1.6154v21.8946zm148.065 3.342h-149.736c-.9228 0-1.6712-.7484-1.6712-1.671v-25.3863c0-.9227.7484-1.6711 1.6712-1.6711 2.7988-.0002 5.4804 1.0061 8.0737 1.9774 2.4208.9086 4.7074 1.7651 6.8999 1.7651 2.1925-.0001 4.4793-.8564 6.9001-1.7651 2.5934-.9714 5.275-1.9774 8.0736-1.9774 2.7987-.0002 5.4805 1.0061 8.0737 1.9774 2.4207.9086 4.7072 1.7651 6.8998 1.7651 2.1926-.0001 4.4792-.8564 6.9002-1.7651 2.5933-.9714 5.2749-1.9774 8.0734-1.9774 2.7987-.0002 5.4804 1.0061 8.0736 1.9774 2.4207.9086 4.7073 1.7651 6.8998 1.7651 2.1927-.0001 4.4792-.8564 6.9002-1.7651 2.5933-.9714 5.2746-1.9774 8.0733-1.9774 2.7988-.0002 5.4804 1.0061 8.0738 1.9774 2.4207.9086 4.7076 1.7651 6.9002 1.7651 2.1923-.0001 4.4787-.8564 6.8998-1.7651 2.5932-.9714 5.2749-1.9774 8.0736-1.9774 2.7985-.0002 5.4801 1.0061 8.0734 1.9774 2.421.9086 4.7076 1.7651 6.9002 1.7651 2.1926-.0001 4.4791-.8564 6.8998-1.7651 2.5937-.9714 5.275-1.9774 8.0737-1.9774.923-.0002 1.6715.7485 1.6715 1.6711v25.3862c0 .9226-.7486 1.6712-1.6715 1.6711z"></path><path id="_313407200" d="m13.5018 107.887h146.394v-8.1467h-146.394zm148.065 3.3419h-149.736c-.9229 0-1.6712-.7484-1.6712-1.671v-11.4887c0-.9226.7483-1.671 1.6712-1.671h149.736c.923 0 1.6715.7485 1.6715 1.6711v11.4886c0 .9226-.7486 1.6711-1.6715 1.671z"></path><path id="_313400528" d="m38.7833 138.241c-.9228 0-1.6711-.7485-1.6711-1.671v-27.0123c0-.9225.7483-1.6709 1.6711-1.6709.9229 0 1.671.7484 1.671 1.6709v27.0121c0 .9225-.7481 1.6712-1.671 1.6712zm20.8894 2.9801c-.9229 0-1.6711-.7485-1.6711-1.671v-29.9924c0-.9225.7481-1.6709 1.6711-1.6709.9229 0 1.671.7484 1.671 1.6709v29.9922c0 .9226-.7481 1.6712-1.671 1.6712z"></path><path id="_313398920" d="m134.614 138.241c-.9229 0-1.6711-.7485-1.6711-1.671l.0001-27.0123c0-.9225.748-1.6709 1.671-1.6709.9229 0 1.6711.7484 1.6711 1.6709l.0001 27.0121c0 .9225-.7483 1.6712-1.6712 1.6712zm-20.8894 2.9801c-.923 0-1.6711-.7485-1.6711-1.671v-29.9924c0-.9225.7481-1.6709 1.671-1.6709.923 0 1.6711.7484 1.6711 1.6709v29.9922c0 .9226-.7481 1.6712-1.671 1.6712z"></path><path id="_313398848" d="m110.432 99.7399c-.9227 0-1.6712-.7484-1.6712-1.671l.0001-49.349c0-.9225.7484-1.6709 1.6711-1.6709.9229 0 1.6714.7485 1.6714 1.671v49.3488c0 .9226-.7485 1.6712-1.6714 1.6711zm13.9607 0c-.9225 0-1.6711-.7484-1.6711-1.671l.0001-49.349c0-.9225.7485-1.6709 1.671-1.6709.923 0 1.671.7485 1.671 1.671l.0001 49.3488c0 .9226-.7482 1.6712-1.6711 1.6711z"></path><path id="_313398824" d="m127.482 33.4157c-.738 0-1.4131-.4908-1.6133-1.2358-.2388-.8949.2904-1.8104 1.182-2.0471l14.2998-3.8331c.8912-.2368 1.8075.289 2.0463 1.1838.239.8912-.2899 1.8068-1.1815 2.0436l-14.2998 3.833c-.1448.0382-.2905.0557-.4335.0556zm0 8.4146c-.738 0-1.4131-.4909-1.6133-1.2393-.2388-.8913.2904-1.8069 1.182-2.047l16.0931-4.3101c.8912-.2403 1.8078.289 2.0468 1.1802.2388.8911-.2901 1.8069-1.1817 2.0471l-16.0934 4.3133c-.1448.0383-.2905.0559-.4335.0558zm-35.839 1.1906c-.7376 0-1.413-.4943-1.6133-1.2393-.2388-.8913.2904-1.8068 1.182-2.0471l15.6987-4.2056c.8913-.2403 1.8079.2891 2.0467 1.1803s-.2903 1.8103-1.1816 2.047l-15.699 4.2056c-.1448.0417-.2904.0592-.4335.0591zm0 8.4146c-.7376 0-1.413-.4943-1.6133-1.2394-.2388-.8912.2904-1.8102 1.182-2.047l15.6987-4.2091c.8913-.2368 1.8079.2925 2.0467 1.1837s-.29 1.8069-1.1816 2.047l-15.699 4.2056c-.1448.0382-.2904.0592-.4335.0592z"></path><path id="_313399448" d="m96.7601 99.7399c-.9229 0-1.6712-.7484-1.6712-1.671l.0001-33.1778h-17.2869v33.1777c0 .9226-.7485 1.6712-1.6711 1.6712-.9229-.0001-1.6715-.7485-1.6715-1.6711l.0001-34.8488c0-.9261.7485-1.6711 1.6714-1.6711l20.6291-.0001c.9229 0 1.671.7452 1.671 1.6712v34.8487c0 .9226-.7481 1.6712-1.671 1.6711z"></path><path id="_313398584" d="m91.6438 64.8911c-.9229 0-1.6711-.7484-1.6711-1.671v-24.5092h-7.0543v24.5092c0 .9226-.7486 1.6711-1.6715 1.6711-.9225-.0001-1.671-.7485-1.671-1.6711v-26.1802c0-.9227.7484-1.6711 1.671-1.6711h10.3969c.9229 0 1.6711.7486 1.6711 1.6711v26.1802c0 .9226-.7482 1.6711-1.6711 1.671z"></path><path id="_313398104" d="m66.7476 99.7399c-.8457 0-1.5712-.6405-1.6603-1.5004l-6.9545-67.1424h-30.1648l-6.9545 67.1423c-.095.9192-.9155 1.5876-1.8344 1.4901-.9179-.094-1.585-.9156-1.49-1.8312l7.1097-68.643c.0883-.8529.806-1.5002 1.6622-1.5002l33.1789-.0002c.8561 0 1.574.6476 1.6621 1.5006l7.1097 68.6427c.0954.9157-.572 1.7374-1.4901 1.8313-.0584.007-.1166.0105-.174.0104z"></path><path id="_313398080" d="m54.7138 31.0971c-.9229 0-1.6711-.7485-1.6711-1.671v-7.4746h-19.9842v7.4746c0 .9225-.7481 1.6711-1.671 1.6711-.9228-.0001-1.6712-.7486-1.6712-1.6711v-9.1458c0-.9226.7484-1.6709 1.6712-1.6709l23.3263-.0001c.9226 0 1.671.7486 1.671 1.6711v9.1457c0 .9225-.7484 1.6711-1.671 1.671z"></path><path id="_313398200" d="m43.0506 21.9515c-.9229 0-1.6712-.7485-1.6712-1.6711v-8.4493c0-.9226.7483-1.6711 1.6711-1.6711.9229-.0001 1.6713.7486 1.6713 1.6711v8.4492c0 .9226-.7484 1.6712-1.6712 1.6712z"></path><path id="_313398608" d="m24.0927 53.977c-.5492 0-1.0873-.2682-1.4067-.7659-.4996-.7765-.2753-1.8104.5006-2.3082l35.5489-22.8799c.7759-.5013 1.81-.2784 2.3095.498.4997.7762.2755 1.8103-.5006 2.3116l-35.5487 22.8796c-.2798.1812-.5933.2648-.903.2648z"></path><path id="_313398464" d="m66.7483 99.7399c-.2545 0-.5128-.059-.7555-.181l-45.0288-22.8798c-.5484-.2785-.8994-.8354-.9137-1.4516-.0142-.6164.3106-1.1872.8454-1.4936l37.8878-21.5151-33.2269-21.3862c-.7761-.5013-1.0003-1.5353-.5007-2.3116.4994-.7765 1.5335-.9992 2.3097-.4979l35.549 22.8797c.4915.3167.7819.867.7658 1.4518-.0163.5849-.3366 1.1176-.8452 1.4066l-37.5862 21.3443 42.2578 21.4733c.8228.4178 1.1506 1.4239.7329 2.2456-.2949.5813-.8822.9156-1.4914.9155z"></path><path id="_313397840" d="m19.3527 99.7399c-.6091 0-1.1964-.3342-1.4911-.9155-.4181-.8218-.0901-1.8277.7328-2.2455l42.2574-21.4734-37.5859-21.3445c-.8025-.4561-1.0835-1.476-.6278-2.2802.4556-.8008 1.4759-1.0827 2.2784-.6266l40.2888 22.8796c.5348.3064.8596.8774.8453 1.4937-.0143.6161-.3652 1.1732-.9139 1.4517l-45.0284 22.8797c-.2425.1218-.5009.1811-.7556.181z"></path><path id="_313397696" d="m43.0506 99.7399c-.9229 0-1.6712-.7484-1.6712-1.671v-68.6428c0-.9228.7483-1.671 1.6711-1.671.9229-.0002 1.6713.7484 1.6713 1.671v68.6427c0 .9226-.7484 1.6712-1.6712 1.6711z"></path><path id="_313397528" d="m151.579 21.551c-4.5861 0-8.3168 3.7322-8.3168 8.3172.0001 4.5885 3.7307 8.3171 8.3168 8.3171s8.3167-3.7286 8.3167-8.3171c.0001-4.5851-3.7306-8.3171-8.3167-8.3172zm0 19.9763c-6.4287 0-11.6589-5.2289-11.6589-11.6591.0001-6.4267 5.2301-11.6557 11.6589-11.6557 6.4287-.0001 11.6589 5.2291 11.6589 11.6557 0 6.4301-5.2302 11.6593-11.6589 11.6591z"></path><path id="_313397504" d="m109.807 30.2511c-.4299 0-.793.3657-.793.7938v15.2137c0 .4283.363.7904.793.7904h15.2121c.4299 0 .793-.3621.793-.7903v-15.2139c0-.428-.3632-.7936-.793-.7936zm15.2121 20.1398h-15.2121c-2.2802 0-4.1352-1.8553-4.1352-4.1322l.0001-15.2139c0-2.2802 1.8548-4.1358 4.1351-4.1358l15.2121-.0001c2.2803 0 4.1351 1.8557 4.1351 4.136l.0001 15.2137c0 2.2769-1.855 4.1325-4.1352 4.1323z"></path><path id="_313397936" d="m151.579 62.2834c-.9228 0-1.6711-.7483-1.6711-1.6709l.0001-20.7561c0-.9226.7481-1.6711 1.671-1.6711.923 0 1.6711.7486 1.6711 1.6711v20.756c0 .9226-.7482 1.6712-1.6711 1.671zm-5.5529 25.1359c-3.983 0-7.2238-3.2377-7.2238-7.2239 0-.9226.7485-1.671 1.671-1.671.923-.0001 1.6714.7484 1.6714 1.671 0 2.1409 1.741 3.8817 3.8814 3.8817 2.1405-.0001 3.8818-1.7407 3.8818-3.8817l.0001-9.1528c0-.926.7481-1.6709 1.671-1.6709.923 0 1.6711.7451 1.6711 1.6711v9.1525c0 3.9863-3.2405 7.224-7.224 7.224z"></path><path id="_313398008" d="m155.351 62.2834h.0035zm-7.3155 7.0883h7.0858v-7.0883h-7.0858zm7.3155 3.342h-7.5456c-1.716 0-3.112-1.3958-3.112-3.1122l.0001-7.5478c0-1.7163 1.3959-3.1123 3.1119-3.1123h7.5456c1.7159 0 3.1123 1.396 3.1123 3.1124l.0001 7.5475c0 1.7165-1.3965 3.1126-3.1124 3.1124z"></path></g></g></svg>