<svg xmlns="http://www.w3.org/2000/svg" height="512" viewBox="0 0 512 512" width="512"><g id="_x32_5_Public_Relation"><g><path d="m164.613 465.536c2.751 5.557 2.077 45.32 39.292 45.32h104.189c36.779 0 36.813-40.33 39.285-45.32 8.262-35.099-15.877-69.36-51.457-73.91-26.49-3.391-53.354-3.391-79.845 0-35.56 4.548-59.712 38.781-51.464 73.91zm53.487-58.106c25.05-3.222 50.7-3.229 75.8 0 25.814 3.292 44.169 28.137 37.97 54.451v.008c-2.909 6.695-1.729 33.039-23.776 33.039h-104.188c-22.039 0-20.685-25.909-23.784-33.039-6.245-26.524 12.366-51.193 37.978-54.459z"></path><path d="m255.969 375.752c29.477 0 53.455-23.955 53.455-53.393 0-29.477-23.978-53.455-53.455-53.455-29.438 0-53.393 23.978-53.393 53.455 0 29.438 23.955 53.393 53.393 53.393zm0-90.92c20.696 0 37.527 16.831 37.527 37.527 0 20.657-16.831 37.465-37.527 37.465-20.657 0-37.465-16.807-37.465-37.465 0-20.697 16.808-37.527 37.465-37.527z"></path><path d="m362.561 481.029c1.477 2.907 1.751 29.827 26.809 29.827h62.975c25.294 0 25.107-26.478 26.809-29.827 5.397-22.928-10.308-45.509-33.77-48.517-16.271-2.084-32.783-2.084-49.053 0-23.456 3.008-39.168 25.584-33.77 48.517zm35.792-32.713c14.522-1.861 29.592-1.975 45.009 0 13.732 1.756 23.613 14.969 20.284 29.065v.008c-1.854 4.593-.958 17.538-11.301 17.538h-62.975c-10.37 0-9.391-12.811-11.301-17.546-3.325-14.077 6.533-27.306 20.284-29.065z"></path><path d="m456.296 377.844c0-19.553-15.905-35.458-35.458-35.458-19.53 0-35.419 15.905-35.419 35.458 0 19.537 15.89 35.427 35.419 35.427 19.553 0 35.458-15.89 35.458-35.427zm-54.948 0c0-10.772 8.742-19.53 19.491-19.53 10.772 0 19.53 8.758 19.53 19.53 0 10.749-8.758 19.498-19.53 19.498-10.749 0-19.491-8.75-19.491-19.498z"></path><path d="m32.838 481.029c1.477 2.907 1.751 29.827 26.809 29.827h62.975c25.294 0 25.114-26.471 26.817-29.819 0 0 0 0 0-.008 5.415-23.022-10.418-45.521-33.77-48.517-16.271-2.084-32.79-2.084-49.061 0-23.356 2.997-39.189 25.48-33.77 48.517zm35.792-32.713c14.552-1.864 29.631-1.971 45.017 0 13.746 1.76 23.594 14.97 20.284 29.073-1.855 4.593-.966 17.538-11.309 17.538h-62.975c-10.367 0-9.39-12.804-11.301-17.538-3.318-14.135 6.559-27.315 20.284-29.073z"></path><path d="m126.573 377.844c0-19.553-15.905-35.458-35.45-35.458-19.537 0-35.427 15.905-35.427 35.458 0 19.537 15.89 35.427 35.427 35.427 19.545 0 35.45-15.89 35.45-35.427zm-54.949 0c0-10.772 8.75-19.53 19.498-19.53 10.764 0 19.522 8.758 19.522 19.53 0 10.749-8.758 19.498-19.522 19.498-10.748 0-19.498-8.75-19.498-19.498z"></path><path d="m458.054 1.144h-404.108c-29.112 0-52.802 23.691-52.802 52.802v80.677c0 27.097 20.517 49.497 46.837 52.468l35.551 114.369c1.034 3.329 4.122 5.6 7.606 5.6s6.572-2.271 7.606-5.6l35.45-114.035h80.506l34.813 48.828c2.987 4.2 9.986 4.2 12.973 0l34.813-48.828h80.506l35.45 114.035c1.034 3.329 4.122 5.6 7.606 5.6s6.572-2.271 7.606-5.6l35.551-114.369c26.319-2.971 46.837-25.371 46.837-52.468v-80.677c.001-29.112-23.689-52.802-52.801-52.802zm36.874 133.479c0 20.331-16.543 36.874-36.874 36.874-3.484 0-6.572 2.271-7.606 5.6l-29.586 95.174-29.586-95.174c-1.034-3.329-4.122-5.6-7.606-5.6h-90.477c-2.574 0-4.993 1.244-6.487 3.344l-30.706 43.072-30.706-43.072c-1.493-2.1-3.912-3.344-6.487-3.344h-90.477c-3.484 0-6.572 2.271-7.606 5.6l-29.586 95.174-29.586-95.174c-1.034-3.329-4.122-5.6-7.606-5.6-20.331 0-36.874-16.543-36.874-36.874v-80.677c0-20.331 16.543-36.874 36.874-36.874h404.108c20.331 0 36.874 16.543 36.874 36.874z"></path><path d="m406.38 65.449h-300.768c-4.402 0-7.964 3.562-7.964 7.964s3.562 7.964 7.964 7.964h300.768c4.402 0 7.964-3.562 7.964-7.964s-3.562-7.964-7.964-7.964z"></path><path d="m248.681 107.16h-143.069c-4.402 0-7.964 3.562-7.964 7.964s3.562 7.964 7.964 7.964h143.069c4.402 0 7.964-3.562 7.964-7.964s-3.562-7.964-7.964-7.964z"></path></g></g></svg>