<svg xmlns="http://www.w3.org/2000/svg" id="Layer_1" height="512" viewBox="0 0 512 512" width="512"><g><g><g><path d="m425.7 375c-4.9 0-9.4-3.2-10.9-8.2l-45.7-158.6c-1.7-6 1.7-12.2 7.6-14l32.7-9.8c2.8-.9 5.9-.6 8.5.8 2.7 1.4 4.7 3.9 5.5 6.8l45.7 158.7c1.7 6-1.7 12.2-7.6 14l-32.7 9.8s0 0-.1 0c-.9.3-1.9.5-3 .5zm-13-181.2c-.1 0-.2 0-.4.1h-.1l-32.7 9.8c-.8.2-1.2 1.1-1 1.9l45.7 158.6c.2.8 1 1.3 1.9 1.1l32.7-9.8c.8-.2 1.2-1.1 1-1.9l-45.7-158.7c-.2-.5-.5-.8-.7-.9-.2-.2-.4-.2-.7-.2z" fill="#78909c"></path></g><g><path d="m86.3 375c-1 0-2.1-.1-3.1-.4 0 0 0 0-.1 0l-32.7-9.8c-5.9-1.7-9.3-8-7.6-13.9l45.7-158.7c.8-2.9 2.8-5.4 5.5-6.8s5.7-1.7 8.5-.8l32.7 9.8c5.9 1.7 9.3 8 7.6 13.9l-45.7 158.5c-1.4 4.9-5.9 8.2-10.8 8.2zm-.4-9.9c.8.2 1.6-.2 1.9-1l45.7-158.6c.2-.8-.2-1.6-1-1.9l-32.8-9.8h-.1c-.4-.1-.8 0-1 .1s-.6.4-.7.9l-45.7 158.7c-.2.8.2 1.6 1 1.9z" fill="#78909c"></path></g><g><g><path d="m137.3 374.5c-.1 0-.1 0-.2 0-.9 0-22.9-.9-44.8-11.6-2.4-1.2-3.4-4.1-2.2-6.5s4.1-3.4 6.5-2.2c20 9.8 40.6 10.6 40.8 10.6 2.7.1 4.8 2.4 4.7 5.1 0 2.6-2.2 4.6-4.8 4.6z" fill="#78909c"></path></g><g><g><g><path d="m396.8 367.8c-1.3 0-2.5-.5-3.5-1.4-1.9-1.9-1.9-5 0-6.9l17.1-17c1.9-1.9 5-1.9 6.9 0s1.9 5 0 6.9l-17.1 17c-.9.9-2.1 1.4-3.4 1.4z" fill="#78909c"></path></g><g><path d="m284 471c-7.6 0-14.7-2.9-20.1-8.3-5-4.8-7.9-11.2-8.3-18.2l-6.7 6.6c-11.1 11.1-29.1 11.1-40.2 0-5.4-5.4-8.4-12.6-8.4-20.2 0-7.4 3.1-14.7 8.4-20.1 1.9-1.9 5-1.9 6.9 0s1.9 5 0 6.9c-3.5 3.5-5.5 8.3-5.5 13.2 0 5 2 9.7 5.5 13.3 7.3 7.3 19.1 7.3 26.4 0l21.9-21.8c1.9-1.9 5-1.9 6.9 0s1.9 5 0 6.9c-1.8 1.8-3.1 3.8-4.1 6.2-.9 2.2-1.4 4.6-1.4 7 0 5.1 1.9 9.7 5.4 13.1 0 0 .1 0 .1.1 3.5 3.5 8.2 5.5 13.2 5.5s9.7-1.9 13.2-5.5l9.8-9.8c1.9-1.9 5-1.9 6.9 0s1.9 5 0 6.9l-9.8 9.8c-5.4 5.5-12.5 8.4-20.1 8.4z" fill="#78909c"></path></g><g><path d="m185.9 435.7c-7.3 0-14.6-2.8-20.1-8.3-5.4-5.4-8.3-12.5-8.3-20.1s3-14.8 8.3-20.1l53.6-53.6c1.9-1.9 5-1.9 6.9 0s1.9 5 0 6.9l-53.6 53.6c-7.3 7.3-7.3 19.1 0 26.4s19.1 7.3 26.4 0l53.6-53.6c1.9-1.9 5-1.9 6.9 0s1.9 5 0 6.9l-53.6 53.6c-5.5 5.6-12.8 8.3-20.1 8.3z" fill="#78909c"></path></g><g><path d="m160.6 394.3c-7.6 0-14.8-3-20.1-8.3-4.2-4.2-7-9.7-8-15.5-.2-1.6-.4-3-.4-4.5 0-7.5 3-14.6 8.3-20.1l85.2-85.2c6.5-6.5 15.5-10.2 24.7-10.2 3 0 6.2.4 9.3 1.2 6.2 1.7 11.8 5.1 16.3 10l26.5 28.7c4.1 4 9.5 6.2 15.1 6.2 5.8 0 11.1-2.2 15.1-6.3 6.7-6.7 8.3-16.8 3.8-25.1-8-14.9-21.6-35.3-41.4-47.8-15.7-9.9-33-13.2-51.2-9.9-.1 0-.1 0-.2 0-.4.1-41.2 6.1-73.3 26.8-4.8 3.2-11 3.7-16.5 1.4l-21.9-9.5c-2.5-1.1-3.6-3.9-2.5-6.4s3.9-3.6 6.4-2.5l21.9 9.5c2.4 1 5.2.8 7.3-.6 33.5-21.6 74.3-27.9 77.2-28.3 20.7-3.8 40.2 0 58.1 11.2 21.6 13.7 36.3 35.5 44.8 51.5 6.5 12.1 4.3 26.9-5.4 36.6-5.8 5.9-13.6 9.2-22 9.2-8.2 0-16-3.2-22-9.1-.1-.1-.1-.1-.2-.2l-26.6-28.8c-3.3-3.5-7.3-6-11.7-7.2-2.3-.6-4.6-.9-6.8-.9-6.6 0-13.1 2.7-17.7 7.4l-85.2 85.2c-3.5 3.6-5.5 8.3-5.5 13.3 0 1 .1 1.9.2 3 .6 3.8 2.5 7.4 5.3 10.2 3.5 3.5 8.2 5.5 13.2 5.5s9.7-1.9 13.2-5.5c1.9-1.9 5-1.9 6.9 0s1.9 5 0 6.9c-5.5 5.2-12.6 8.1-20.2 8.1z" fill="#78909c"></path></g></g><g><path d="m377.6 225.3c-.4 0-.7 0-1.1-.1-33.5-7.6-71.1-7.3-78.3-7.1h-.4c-2.7 0-4.9-2.2-4.9-4.9s2.2-4.9 4.9-4.9h.2c10.4-.2 47-.3 80.7 7.4 2.6.6 4.3 3.2 3.7 5.8-.6 2.3-2.6 3.8-4.8 3.8z" fill="#78909c"></path></g></g></g><g><g><path d="m383.4 390.6c-5.2 0-10.4-2-14.3-5.9-1.9-1.9-1.9-5 0-6.9s5-1.9 6.9 0c4.1 4.1 10.7 4.1 14.8 0s4.1-10.7 0-14.8l-18.1-18c-4.1-4.1-10.7-4.1-14.8 0s-4.1 10.7 0 14.8c1.9 1.9 1.9 5 0 6.9s-5 1.9-6.9 0c-7.9-7.9-7.9-20.7 0-28.6s20.7-7.9 28.6 0l18.1 18.1c7.9 7.9 7.9 20.7 0 28.6-3.9 3.9-9.1 5.8-14.3 5.8z" fill="#78909c"></path></g><g><path d="m368.2 418.9c-5.4 0-10.5-2.1-14.3-5.9-1.9-1.9-1.9-5 0-6.9s5-1.9 6.9 0c2 2 4.6 3 7.4 3s5.4-1.1 7.4-3c4.1-4.1 4.1-10.7 0-14.8l-24.6-24.6c-2-2-4.6-3-7.4-3s-5.4 1.1-7.4 3c-4.1 4.1-4.1 10.7 0 14.8 1.9 1.9 1.9 5 0 6.9s-5 1.9-6.9 0c-7.9-7.9-7.9-20.7 0-28.6 3.8-3.8 8.9-5.9 14.3-5.9s10.5 2.1 14.3 5.9l24.6 24.6c7.9 7.9 7.9 20.7 0 28.6-3.8 3.8-8.9 5.9-14.3 5.9z" fill="#78909c"></path></g><g><path d="m353.7 447.8c-5.4 0-10.5-2.1-14.3-6l-31.8-31.8c-7.9-7.9-7.9-20.7 0-28.6 3.8-3.8 8.9-5.9 14.3-5.9s10.5 2.1 14.3 5.9l31.8 31.8c7.9 7.9 7.9 20.7 0 28.6-3.9 3.8-8.9 5.9-14.3 6zm-31.8-62.5c-2.8 0-5.4 1.1-7.4 3-2 2-3 4.6-3 7.4s1.1 5.4 3 7.4l31.8 31.8c2 2 4.7 3.1 7.5 3.1s5.3-1.1 7.3-3.1c4.1-4.1 4.1-10.7 0-14.8l-31.8-31.8c-2-1.9-4.6-3-7.4-3z" fill="#78909c"></path></g><g><path d="m322.7 460.2c-5.2 0-10.4-2-14.3-5.9l-22.6-22.6c-7.9-7.9-7.9-20.7 0-28.6s20.7-7.9 28.6 0c1.9 1.9 1.9 5 0 6.9s-5 1.9-6.9 0c-4.1-4.1-10.7-4.1-14.8 0s-4.1 10.7 0 14.8l22.6 22.6c4.1 4.1 10.7 4.1 14.8 0s4.1-10.7 0-14.8c-1.9-1.9-1.9-5 0-6.9s5-1.9 6.9 0c7.9 7.9 7.9 20.7 0 28.6-3.9 3.9-9.1 5.9-14.3 5.9z" fill="#78909c"></path></g></g></g><g><g><g><path d="m237.8 179.4c-2.9 0-5.7-1.1-7.9-3.3l-60.2-60.2c-8.3-8.2-12.8-19.2-12.9-30.9 0-11.8 4.5-22.8 12.9-31.1 8.2-8.3 19.2-12.8 30.9-12.9h.1c11.7 0 22.7 4.6 31 12.9l6 6 6-6c8.3-8.3 19.2-12.9 31-12.9h.1c11.7 0 22.7 4.6 31 12.9 9.7 9.8 14.3 24.1 12.3 38.1-.4 2.7-2.9 4.5-5.5 4.2-2.7-.4-4.5-2.8-4.2-5.5 1.5-10.9-2.1-22.4-9.6-29.9-6.4-6.4-15-10-24.1-10 0 0 0 0-.1 0-9.1 0-17.6 3.6-24 10l-9.5 9.5c-1.9 1.9-5 1.9-6.9 0l-9.5-9.5c-6.5-6.5-15-10-24.1-10 0 0 0 0-.1 0-9.1 0-17.6 3.6-24 10-6.5 6.5-10 15.1-10 24.2s3.6 17.6 10 24l60.2 60.2c.5.5 1.4.5 2 0l24-24c1.9-1.9 5-1.9 6.9 0s1.9 5 0 6.9l-24 24c-2.1 2.2-5 3.3-7.8 3.3z" fill="#78909c"></path></g></g><g><g><path d="m297.8 182.6c-2.9 0-5.7-1.1-7.9-3.3l-40.2-40.5c-12.2-12.2-12.4-32.2-.4-44.6 5.8-6.1 13.8-9.5 22.4-9.6 8.9-.1 17.5 3.4 23.7 9.6l2.6 2.6 3.1-3.1c12.2-12.2 32.2-12.4 44.7-.5 6.1 5.8 9.5 13.8 9.6 22.4.1 8.8-3.4 17.5-9.6 23.7l-40 40c-2.3 2.2-5.2 3.3-8 3.3zm-25.8-88.2c-.1 0-.2 0-.3 0-6 .1-11.5 2.4-15.4 6.6-8.3 8.6-8.2 22.5.3 31l40.2 40.5c.5.5 1.4.5 2 0l40-40c4.4-4.4 6.8-10.4 6.8-16.7-.1-6-2.4-11.5-6.6-15.4-8.6-8.3-22.5-8.2-31 .3l-6.5 6.5c-.9.9-2.2 1.4-3.5 1.4s-2.5-.5-3.5-1.4l-6.1-6.1c-4.3-4.2-10.3-6.7-16.4-6.7z" fill="#78909c"></path></g></g></g></g></svg>