<svg xmlns="http://www.w3.org/2000/svg" id="Layer_1" height="512" viewBox="0 0 48 48" width="512" data-name="Layer 1"><path d="m11.851 3.685v-1.732a.75.75 0 1 0 -1.5 0v1.732a.75.75 0 1 0 1.5 0z"></path><path d="m2.3 17.941a.738.738 0 0 0 .374-.1l1.5-.866a.75.75 0 1 0 -.75-1.3l-1.5.867a.75.75 0 0 0 .376 1.4z"></path><path d="m17.962 4.6a.75.75 0 1 0 -1.162-.946l-.97 1.2a.75.75 0 1 0 1.164.946z"></path><path d="m2.852 11.134a.75.75 0 0 0 .117-1.491l-1.71-.273a.75.75 0 0 0 -.237 1.481l1.71.274a.808.808 0 0 0 .12.009z"></path><path d="m5.429 5.8a.75.75 0 1 0 1.164-.946l-1.055-1.304a.75.75 0 1 0 -1.164.95z"></path><path d="m47.25 45.3h-11.65v-6.5c4.133-.2 6.834-2.084 6.834-9.6 0-8.053-6.684-19.782-6.969-20.277a.779.779 0 0 0 -1.3 0c-.05.086-1.242 2.168-2.644 5.193a.751.751 0 0 0 1.362.631c.751-1.622 1.45-2.984 1.931-3.887 1.7 3.191 6.12 12.119 6.12 18.34 0 7.509-2.771 8.12-6.119 8.12a6.943 6.943 0 0 1 -3.807-.813.75.75 0 0 0 -.831 1.248 7.437 7.437 0 0 0 3.923 1.045v5.418a12.533 12.533 0 0 0 -8.318-3.422 11.31 11.31 0 0 0 -2.265.248v-5.31c.838-.015 3.666-.077 3.931-.077 6.308 0 10.074-3.672 10.074-9.822 0-4.007-2.184-7.059-6.673-9.315a7.977 7.977 0 1 0 -15.885-1.047 7.811 7.811 0 0 0 .134 1.437 9.026 9.026 0 0 0 -10.124 8.956c0 4.689 3.741 8.758 8.9 9.675a40.692 40.692 0 0 0 5.451.236c.89 0 1.806-.008 2.7-.021v5.015a18.071 18.071 0 0 0 -7.686-1.755 18.281 18.281 0 0 0 -14.166 6.531.75.75 0 1 0 1.154.957 16.792 16.792 0 0 1 13.005-5.988 16.468 16.468 0 0 1 6.548 1.4 13.964 13.964 0 0 0 -4.732 3.6.75.75 0 0 0 1.138.977 11.375 11.375 0 0 1 8.5-4.2 11.479 11.479 0 0 1 8.5 4.245.751.751 0 0 0 .567.258h12.4a.75.75 0 0 0 0-1.5zm-33.116-11.236c-4.439-.789-7.66-4.237-7.66-8.2a7.5 7.5 0 0 1 9.466-7.264.75.75 0 0 0 .9-.975 6.473 6.473 0 1 1 12.442-.831.75.75 0 0 0 .415.831c4.316 2.035 6.326 4.643 6.326 8.208 0 5.366-3.045 8.322-8.574 8.322-.271 0-3.087.061-3.931.077v-8.567l6.738-3.234a.75.75 0 1 0 -.65-1.352l-6.088 2.921v-9.85a.75.75 0 1 0 -1.5 0v14.929l-6.088-2.922a.75.75 0 1 0 -.649 1.352l6.737 3.235v3.512a63.771 63.771 0 0 1 -7.884-.192z"></path><path d="m11.486 6.919a5.576 5.576 0 0 1 4.171 1.881.75.75 0 0 0 1.123-1 7.07 7.07 0 1 0 -10.015 9.95.75.75 0 1 0 1-1.116 5.57 5.57 0 0 1 3.719-9.715z"></path></svg>