<svg xmlns="http://www.w3.org/2000/svg" xmlns:svg="http://www.w3.org/2000/svg" id="svg3225" xml:space="preserve" width="682.66669" height="682.66669" viewBox="0 0 682.66669 682.66669"><defs id="defs3229"><clipPath clipPathUnits="userSpaceOnUse" id="clipPath3239"><path d="M 0,512 H 512 V 0 H 0 Z" id="path3237"></path></clipPath></defs><g id="g3231" transform="matrix(1.3333333,0,0,-1.3333333,0,682.66667)"><g id="g3233"><g id="g3235" clip-path="url(#clipPath3239)"><g id="g3241" transform="translate(48.8564,7.5)"><path d="M 0,0 H 279.287" style="fill:none;stroke:#000000;stroke-width:15;stroke-linecap:round;stroke-linejoin:round;stroke-miterlimit:10;stroke-dasharray:none;stroke-opacity:1" id="path3243"></path></g><g id="g3245" transform="translate(71.0908,362.7822)"><path d="m 0,0 c 8.698,4.836 18.772,7.45 29.439,7.038 12.53,-0.48 24.01,-5.04 33.17,-12.38 3.43,29.23 28.64,51.21 57.61,50.71 28.25,-0.49 52.29,-22.22 55.631,-50.71 9.149,7.34 20.629,11.9 33.159,12.38 33.36,1.29 60.93,-27.02 58.761,-60.34 -0.331,-5.07 -1.331,-9.95 -2.901,-14.57 -0.29,-0.82 0.07,-1.72 0.85,-2.13 21.6,-11.34 36.33,-33.98 36.33,-60.08 0,-33.69 -24.57,-61.641 -56.779,-66.92 -0.721,-0.13 -1.291,-0.67 -1.431,-1.4 -5.06,-26.12 -28.029,-45.84 -55.62,-45.84 -6.18,0 -12.14,1 -17.72,2.83 -3.149,1.04 -5.95,2.269 -8.399,3.54 -3.631,1.89 -7.5,3.269 -11.5,4.05" style="fill:none;stroke:#000000;stroke-width:15;stroke-linecap:round;stroke-linejoin:round;stroke-miterlimit:10;stroke-dasharray:none;stroke-opacity:1" id="path3247"></path></g><g id="g3249" transform="translate(158.9297,128.9199)"><path d="m 0,0 c -4.04,-0.8 -7.949,-2.18 -11.64,-4.09 -7.78,-4.02 -16.61,-6.29 -25.969,-6.29 -27.58,0 -50.561,19.72 -55.611,45.84 -0.139,0.73 -0.71,1.27 -1.429,1.4 -32.21,5.28 -56.781,33.23 -56.781,66.92 0,26.1 14.731,48.74 36.33,60.08 0.781,0.41 1.13,1.31 0.85,2.13 -1.569,4.62 -2.569,9.5 -2.899,14.57 -0.677,10.389 1.537,20.291 5.915,28.96" style="fill:none;stroke:#000000;stroke-width:15;stroke-linecap:round;stroke-linejoin:round;stroke-miterlimit:10;stroke-dasharray:none;stroke-opacity:1" id="path3251"></path></g><g id="g3253" transform="translate(417.9619,331.4233)"><path d="m 0,0 c -10.42,0 -16.672,20.576 -25.743,24.347 -9.392,3.904 -28.339,-6.061 -35.424,1.025 -7.086,7.086 2.879,26.032 -1.024,35.424 -3.771,9.071 -24.348,15.323 -24.348,25.742 0,10.42 20.577,16.671 24.348,25.742 3.903,9.392 -6.061,28.34 1.024,35.425 7.086,7.086 26.033,-2.879 35.425,1.024 9.07,3.771 15.322,24.348 25.742,24.348 10.419,0 16.671,-20.577 25.742,-24.348 9.392,-3.903 28.339,6.061 35.424,-1.024 7.086,-7.086 -2.879,-26.033 1.025,-35.425 C 65.962,103.209 86.538,96.958 86.538,86.538 86.538,76.119 65.962,69.867 62.19,60.796 58.287,51.404 68.252,32.457 61.166,25.372 54.08,18.286 35.134,28.25 25.742,24.347 16.671,20.576 10.419,0 0,0 Z" style="fill:none;stroke:#000000;stroke-width:15;stroke-linecap:round;stroke-linejoin:round;stroke-miterlimit:10;stroke-dasharray:none;stroke-opacity:1" id="path3255"></path></g><g id="g3257" transform="translate(451.6152,417.9614)"><path d="m 0,0 c 0,-18.586 -15.067,-33.654 -33.653,-33.654 -18.587,0 -33.655,15.068 -33.655,33.654 0,18.587 15.068,33.654 33.655,33.654 C -15.067,33.654 0,18.587 0,0 Z" style="fill:none;stroke:#000000;stroke-width:15;stroke-linecap:round;stroke-linejoin:round;stroke-miterlimit:10;stroke-dasharray:none;stroke-opacity:1" id="path3259"></path></g><g id="g3261" transform="translate(222.1475,169.8496)"><path d="m 0,0 c -2.918,-26.594 -1.438,-58.558 11.401,-91.824 13.024,-33.743 33.124,-56.882 47.369,-70.526" style="fill:none;stroke:#000000;stroke-width:15;stroke-linecap:round;stroke-linejoin:round;stroke-miterlimit:10;stroke-dasharray:none;stroke-opacity:1" id="path3263"></path></g><g id="g3265" transform="translate(99.7217,7.5)"><path d="m 0,0 c 14.244,13.644 34.345,36.782 47.368,70.525 26.884,69.657 3.965,133.599 -4.846,154.492 -0.887,2.103 -0.496,4.524 1,6.25 l 17.639,20.337 c 2.636,3.039 7.464,2.688 9.606,-0.717 2.195,-3.491 4.364,-7.3 6.423,-11.437 6.139,-12.326 9.605,-24.136 11.564,-34.31 0.411,-2.137 3.449,-2.153 3.912,-0.026 2.09,9.595 5.772,20.857 12.324,32.454 2.373,4.203 4.867,7.994 7.362,11.395 2.257,3.078 6.794,3.253 9.319,0.391 l 15.954,-18.083 c 1.523,-1.725 1.929,-4.167 1.034,-6.288 -2.615,-6.204 -6.466,-16.185 -9.889,-28.973" style="fill:none;stroke:#000000;stroke-width:15;stroke-linecap:round;stroke-linejoin:round;stroke-miterlimit:10;stroke-dasharray:none;stroke-opacity:1" id="path3267"></path></g></g></g></g></svg>